/vscmnt/brussel_pixiu_data/_data_brussel/112/vsc11236/PredSimResults/SUBJ11opt3D/expIG/worker_11.mot
version=1
nRows=8
nColumns=50
inDegrees=yes
endheader
                time	         pelvis_tilt	         pelvis_list	     pelvis_rotation	           pelvis_tx	           pelvis_ty	           pelvis_tz	       hip_flexion_r	     hip_adduction_r	      hip_rotation_r	        knee_angle_r	       ankle_angle_r	         mtp_angle_r	       hip_flexion_l	     hip_adduction_l	      hip_rotation_l	        knee_angle_l	       ankle_angle_l	         mtp_angle_l	    lumbar_extension	      lumbar_bending	     lumbar_rotation	 ercspn_r/activation	 intobl_r/activation	 extobl_r/activation	    abd_r/activation	    add_r/activation	hamstrings_r/activation	bifemsh_r/activation	glut_max_r/activation	iliopsoas_r/activation	rect_fem_r/activation	  vasti_r/activation	gastroc_r/activation	 soleus_r/activation	tib_ant_r/activation	 ercspn_l/activation	 intobl_l/activation	 extobl_l/activation	    abd_l/activation	    add_l/activation	hamstrings_l/activation	bifemsh_l/activation	glut_max_l/activation	iliopsoas_l/activation	rect_fem_l/activation	  vasti_l/activation	gastroc_l/activation	 soleus_l/activation	tib_ant_l/activation	
          1.61003717	         -7.38573454	          3.77267643	         -8.56394406	          2.57605947	          0.92355806	          0.00676357	        -14.51321669	         -4.92137109	          1.78841693	        -11.32346906	          7.14904450	         39.30421054	         37.38962646	         -0.32915889	         -7.84109636	         -9.23544948	          4.03163993	          0.30810757	        -12.27976159	         -2.45386040	          2.51020902	          0.02696709	          0.00999999	          0.01000000	          0.02684392	          0.07575668	          0.02277045	          0.31792155	          0.01931511	          0.29231760	          0.01000044	          0.01000000	          0.18934258	          0.29581881	          0.01389787	          0.07740427	          0.22655384	          0.01721687	          0.00999999	          0.29473339	          0.08829393	          0.25725591	          0.10338154	          0.13918418	          0.02449374	          0.00999999	          0.01638411	          0.00999999	          0.59990494	
          1.62077075	         -7.36558941	          3.91200262	         -8.70462862	          2.59771851	          0.92114919	          0.00624536	        -15.33218105	         -5.27192570	          1.42453903	        -12.01019641	          5.66793939	         41.34918066	         37.56095895	         -0.13650174	         -7.94909733	        -11.49662934	          3.23175228	          0.29079740	        -11.76104599	         -2.84320570	          2.77143631	          0.07132218	          0.00999999	          0.01000004	          0.02277045	          0.19699229	          0.01931512	          0.26967827	          0.01638411	          0.46271631	          0.01000000	          0.01000001	          0.16061048	          0.25133272	          0.01178892	          0.06565843	          0.19217507	          0.01460427	          0.00999999	          0.36411278	          0.07844771	          0.21821820	          0.28288557	          0.11806345	          0.02077690	          0.00999999	          0.01389788	          0.01178892	          0.67022764	
          1.63150433	         -7.32533139	          4.01403765	         -8.78961529	          2.61951880	          0.91894782	          0.00567527	        -15.85067343	         -5.56178535	          1.02373153	        -13.28314903	          4.18591902	         43.23278691	         37.59979906	          0.01347372	         -8.01706700	        -13.83585359	          2.72828355	          0.22150945	        -11.25094155	         -3.19347903	          3.00348890	          0.09622600	          0.00999999	          0.00999999	          0.01931511	          0.16709939	          0.01638411	          0.22875557	          0.01389788	          0.62198166	          0.01000000	          0.00999999	          0.13623839	          0.21319383	          0.00999999	          0.07265531	          0.16301315	          0.01238812	          0.15847624	          0.43205645	          0.06654354	          0.18510433	          0.31476484	          0.10014772	          0.01762408	          0.00999999	          0.01178892	          0.00999999	          0.77327843	
          1.64223791	         -7.26666801	          4.07907297	         -8.82021272	          2.64110306	          0.91718509	          0.00501548	        -15.91067601	         -5.79797372	          0.62998401	        -15.36823503	          2.72698650	         44.83481767	         37.60219545	          0.14965315	         -8.09417724	        -16.12212840	          2.16411636	          0.17422514	        -10.79441895	         -3.50512453	          3.20056097	          0.10245967	          0.00999999	          0.00999999	          0.01638411	          0.19879842	          0.01389788	          0.19404270	          0.01178892	          0.68241846	          0.00999999	          0.00999999	          0.11556467	          0.18084239	          0.00999999	          0.10629507	          0.13827646	          0.01050827	          0.19679656	          0.48520137	          0.05644579	          0.15701537	          0.36277803	          0.08495065	          0.01494969	          0.01000004	          0.00999999	          0.00999999	          0.83187782	
          1.65297150	         -7.18798375	          4.12634146	         -8.80095954	          2.66228483	          0.91595793	          0.00428311	        -15.43076899	         -6.00822170	          0.25335001	        -18.39899571	          1.43034268	         45.71901726	         37.66089149	          0.28227342	         -8.16624451	        -18.53328877	          1.79041574	          0.10287308	        -10.40963082	         -3.80588444	          3.35486970	          0.18566568	          0.00999999	          0.00999999	          0.01389787	          0.22165503	          0.01178893	          0.16459739	          0.00999999	          0.57886377	          0.00999999	          0.00999999	          0.09802813	          0.15340017	          0.00999999	          0.10981493	          0.11729348	          0.00999999	          0.22969843	          0.47225272	          0.04788033	          0.13318882	          0.37429344	          0.07205967	          0.01268113	          0.09896113	          0.00999999	          0.00999999	          0.85299757	
          1.66370508	         -7.09232144	          4.16505439	         -8.73350439	          2.68301739	          0.91539041	          0.00350285	        -14.40915523	         -6.21086783	         -0.10255126	        -22.32336360	          0.14456679	         45.82223675	         37.68809757	          0.43236021	         -8.21121009	        -20.94014826	          1.79559266	          0.02863069	        -10.09257690	         -4.10649434	          3.46296644	          0.20343642	          0.00999999	          0.00999999	          0.01178892	          0.22575303	          0.01000000	          0.14635693	          0.00999999	          0.49102316	          0.00999999	          0.00999999	          0.08315269	          0.13012222	          0.00999999	          0.09315089	          0.09949459	          0.00999999	          0.25204116	          0.42949084	          0.04061468	          0.11297787	          0.33726861	          0.06112486	          0.01075683	          0.17986061	          0.00999999	          0.00999999	          0.82600573	
          1.67443866	         -6.98628534	          4.19634861	         -8.61603638	          2.70324689	          0.91557159	          0.00269848	        -12.88372307	         -6.41258669	         -0.43619303	        -26.97327524	         -1.36790829	         45.17993058	         37.59499923	          0.62408755	         -8.18277567	        -23.17835224	          2.20920145	         -0.02307694	         -9.84133654	         -4.40879149	          3.52049224	          0.18814973	          0.00999999	          0.00999999	          0.00999999	          0.24459432	          0.01000000	          0.13924172	          0.00999999	          0.41651206	          0.00999999	          0.00999999	          0.07053455	          0.11037661	          0.00999999	          0.07901556	          0.08439662	          0.00999999	          0.26403524	          0.38757670	          0.04603187	          0.09583386	          0.28608925	          0.05184937	          0.01000001	          0.24497789	          0.00999999	          0.00999999	          0.70066217	
          1.68517224	         -6.87758392	          4.20769409	         -8.45089478	          2.72292057	          0.91653304	          0.00192300	        -10.90955131	         -6.59980776	         -0.73042429	        -32.14291580	         -3.28087226	         43.75732636	         37.30034552	          0.85434555	         -8.07007986	        -25.08279698	          2.97994059	         -0.01855578	         -9.65595239	         -4.70371051	          3.52890154	          0.17187601	          0.00999999	          0.01000004	          0.00999999	          0.28568254	          0.01000004	          0.11811230	          0.00999999	          0.35330777	          0.00999999	          0.00999999	          0.05983117	          0.09362733	          0.00999999	          0.06702522	          0.07158972	          0.00999999	          0.28388666	          0.32876326	          0.04824525	          0.08129140	          0.24267617	          0.04398141	          0.01000001	          0.36357245	          0.00999999	          0.00999999	          0.59433906	
